# xmcd CD database file
#
# Track frame offsets:
#	150
#	33462
#	43575
#	60906
#	75380
#	95462
#	109363
#	129355
#	136809
#	150407
#	162307
#	178781
#
# Disc length: 2653 seconds
#
# Revision: 0
# Processed by: cddbd v1.5.2PL0 Copyright (c) Steve Scherf et al.
# Submitted via: CDex 1.51
#
DISCID=8e0a5b0c
DTITLE=Louis Andriessen - All the pianoworks
DYEAR=2005
DGENRE=New Age
TTITLE0=Trepidus 1983
TTITLE1=Souvenirs d'enfance 1954-1956: Nocturne
TTITLE2=S d'e: Ricercare
TTITLE3=S d'e: Allegro Marcato
TTITLE4=S d'e: As you like it
TTITLE5=S d'e: Blokken
TTITLE6=S d'e: Strawinsky
TTITLE7=S d'e: Rondo Opus
TTITLE8=S d'e: Etude pour les Timbre
TTITLE9=S d'e: Note=70
TTITLE10=Image de Moreau 1999
TTITLE11=Nuit d'été
EXTD=YEAR: 2005
EXTT0=
EXTT1=
EXTT2=
EXTT3=
EXTT4=
EXTT5=
EXTT6=
EXTT7=
EXTT8=
EXTT9=
EXTT10=
EXTT11=
PLAYORDER=
